<?xml version="1.0" standalone="no"?>
<!DOCTYPE svg PUBLIC "-//W3C//DTD SVG 20010904//EN"
 "http://www.w3.org/TR/2001/REC-SVG-20010904/DTD/svg10.dtd">
<svg version="1.0" xmlns="http://www.w3.org/2000/svg"
 width="1000.000000pt" height="1000.000000pt" viewBox="0 0 1000.000000 1000.000000"
 preserveAspectRatio="xMidYMid meet">
<metadata>
Created by potrace 1.11, written by Peter Selinger 2001-2013
</metadata>
<g transform="translate(0.000000,1000.000000) scale(0.100000,-0.100000)"
fill="#000000" stroke="none">
<path d="M3690 9943 l0 -48 -24 40 c-12 22 -27 39 -32 38 -7 -1 -1732 -995
-2197 -1265 l-68 -39 21 -33 c28 -46 25 -51 -16 -26 -20 13 -39 19 -44 14 -4
-5 -301 -517 -659 -1139 -625 -1084 -651 -1131 -633 -1145 11 -8 28 -20 38
-27 16 -10 12 -12 -30 -12 l-49 -1 7 -52 c3 -29 6 -619 6 -1310 l0 -1258 48 0
47 -1 -37 -20 c-21 -11 -38 -22 -38 -25 0 -3 291 -514 647 -1134 l648 -1129
33 20 c44 26 45 25 23 -19 l-19 -37 1134 -655 c624 -360 1138 -656 1142 -658
5 -1 18 15 30 35 l22 38 0 -42 0 -43 1309 0 1310 0 3 42 3 43 23 -37 c21 -34
26 -37 45 -26 21 10 2238 1289 2245 1294 2 1 -6 21 -18 44 l-22 43 37 -23 c25
-15 40 -19 47 -12 5 5 302 516 659 1134 l648 1123 -37 22 -37 23 43 0 42 0 0
1310 0 1310 -40 0 c-49 0 -50 9 -5 35 l34 20 -649 1124 c-358 619 -654 1129
-659 1134 -6 6 -24 1 -46 -13 l-37 -23 21 41 21 41 -22 15 c-55 35 -2234 1298
-2242 1299 -5 1 -20 -16 -32 -38 l-24 -40 0 48 0 47 -1310 0 -1310 0 0 -47z
m2536 -170 c-3 -10 -132 -493 -286 -1073 -155 -580 -288 -1079 -296 -1107
l-15 -53 -630 0 c-346 0 -629 2 -629 5 0 4 -585 2192 -596 2228 -5 16 58 17
1226 17 1168 0 1231 -1 1226 -17z m-2258 -1111 c162 -603 296 -1108 298 -1122
4 -24 -28 -44 -543 -339 l-547 -315 -818 824 -818 824 58 33 c31 18 507 293
1057 612 550 318 1005 579 1010 580 6 0 142 -493 303 -1097z m3440 475 l1053
-611 -818 -818 c-562 -562 -823 -817 -835 -815 -12 4 -1008 577 -1066 616 -21
13 576 2253 598 2245 8 -3 489 -280 1068 -617z m-5119 -1501 c573 -579 810
-825 806 -835 -5 -12 -608 -1062 -619 -1078 -4 -5 -2222 590 -2230 597 -9 9
1214 2141 1225 2137 4 -1 372 -371 818 -821z m6859 -247 c337 -584 611 -1063
609 -1066 -3 -2 -506 -138 -1118 -303 -843 -226 -1117 -295 -1125 -287 -6 7
-150 252 -319 545 l-308 534 819 819 c450 450 821 819 824 819 3 0 281 -478
618 -1061z m-2978 -365 l545 -316 313 -543 312 -542 0 -627 0 -626 -306 -531
c-169 -292 -314 -539 -323 -549 -9 -10 -259 -158 -556 -329 l-540 -311 -620 0
-620 0 -550 318 -549 317 -313 545 -313 545 0 623 0 623 316 547 317 547 541
312 541 312 630 1 631 0 544 -316z m-4835 -1102 l1110 -297 3 -631 2 -631 -57
-16 c-305 -84 -2155 -577 -2167 -577 -14 0 -16 121 -16 1225 0 674 3 1225 8
1224 4 0 506 -134 1117 -297z m8455 -930 l0 -1229 -1125 301 -1125 300 2 630
3 630 1105 297 c608 163 1113 298 1123 298 16 1 17 -64 17 -1227z m-7002
-1263 c166 -289 304 -532 307 -540 3 -9 -282 -299 -817 -829 -452 -448 -823
-810 -825 -805 -2 6 -276 483 -608 1060 l-603 1050 26 8 c145 44 2208 592
2213 588 3 -3 141 -243 307 -532z m5859 236 c609 -163 1108 -297 1110 -299 6
-6 -1221 -2127 -1228 -2124 -4 2 -374 373 -823 824 l-815 821 285 494 c157
272 296 513 310 537 14 23 31 42 40 42 8 0 512 -133 1121 -295z m-4874 -1200
c274 -158 487 -286 487 -294 0 -8 -131 -513 -292 -1123 -246 -934 -294 -1108
-307 -1103 -15 6 -2111 1213 -2121 1222 -2 2 364 372 815 823 l819 819 56 -32
c31 -18 276 -158 543 -312z m4679 -1306 c-34 -29 -2116 -1219 -2121 -1213 -14
17 -604 2238 -595 2241 5 2 250 143 544 313 l535 309 822 -822 c453 -452 819
-824 815 -828z m-2519 -128 c164 -612 296 -1115 294 -1117 -2 -2 -555 -3
-1229 -2 l-1224 3 277 1055 c153 580 285 1083 294 1118 l17 62 636 -2 636 -3
299 -1114z"/>
<path d="M4861 9025 c-27 -12 -99 -15 -392 -15 l-359 0 0 -48 c0 -133 198
-252 425 -255 55 -1 117 2 137 6 36 7 38 6 51 -25 8 -18 26 -48 42 -66 l28
-33 -38 -140 c-21 -77 -34 -143 -30 -147 12 -12 32 27 49 96 40 158 46 173 66
162 10 -6 36 -14 57 -18 l38 -8 5 -169 c4 -122 8 -170 18 -173 9 -3 12 35 12
167 l0 171 28 6 c15 3 44 13 65 21 20 9 39 14 40 12 2 -2 19 -62 38 -133 19
-71 40 -131 47 -134 19 -6 15 28 -23 165 l-35 128 20 25 c12 14 29 42 38 62
16 36 19 37 52 31 19 -4 78 -7 130 -7 241 0 440 125 440 277 l0 27 -359 0
c-293 0 -366 3 -401 15 -54 19 -145 19 -189 0z m196 -52 c29 -13 62 -37 73
-53 28 -39 25 -45 -9 -20 -51 36 -101 51 -166 51 -70 0 -115 -15 -162 -55 -42
-35 -42 -22 -2 27 34 42 70 63 126 76 47 11 74 6 140 -26z m-638 -17 c-7 -7
-243 -35 -251 -30 -5 3 -8 12 -8 20 0 11 24 14 132 14 72 0 129 -2 127 -4z
m324 -28 l-19 -33 -87 0 c-71 0 -91 4 -113 21 -54 40 -45 44 101 44 l137 0
-19 -32z m675 10 c-20 -30 -76 -46 -160 -47 -65 -1 -68 0 -83 29 -8 16 -15 31
-15 35 0 3 61 5 136 5 l136 0 -14 -22z m332 8 c0 -8 -3 -17 -7 -19 -8 -5 -230
20 -248 27 -5 3 50 5 123 5 109 1 132 -2 132 -13z m-1280 -20 c0 -3 -51 -21
-113 -42 -114 -37 -114 -37 -140 -18 -33 23 -34 34 -4 35 12 0 65 6 117 13
106 15 140 18 140 12z m1153 -17 l108 -13 -26 -25 -25 -25 -115 37 c-114 38
-145 54 -82 44 17 -3 81 -11 140 -18z m-570 -15 c35 -18 77 -53 77 -65 0 -4
-23 -19 -52 -33 -81 -40 -205 -34 -269 14 l-24 19 30 31 c55 57 162 72 238 34z
m-558 -3 c-26 -24 -140 -91 -156 -91 -10 0 -30 5 -45 12 -25 12 -21 14 82 49
117 40 134 44 119 30z m1049 -31 l99 -33 -34 -17 c-33 -18 -35 -18 -74 6 -22
14 -57 35 -77 47 -36 21 -53 45 -25 35 6 -3 57 -20 111 -38z m-990 14 c12 -5
8 -16 -22 -61 -35 -53 -38 -55 -72 -49 -19 3 -43 6 -52 6 -34 0 -18 19 55 64
39 25 73 46 74 46 1 0 8 -3 17 -6z m902 -43 c42 -26 72 -51 68 -54 -5 -3 -30
-8 -55 -12 l-46 -7 -38 52 c-31 42 -35 54 -24 61 8 5 15 9 16 9 2 0 37 -22 79
-49z m-809 -17 c-8 -34 -17 -48 -35 -55 -25 -10 -82 -12 -82 -4 0 3 16 27 36
55 28 39 42 50 64 50 l27 0 -10 -46z m59 15 c-3 -17 -6 -38 -6 -45 0 -8 -7
-14 -15 -14 -17 0 -19 27 -5 64 14 38 34 33 26 -5z m532 -11 c12 -47 10 -53
-13 -45 -10 4 -15 20 -15 47 0 52 15 51 28 -2z m111 -6 c17 -27 31 -52 31 -55
0 -4 -18 -7 -39 -7 -42 0 -71 20 -71 48 0 9 -3 27 -6 40 -6 19 -3 22 24 22 25
0 35 -8 61 -48z m-520 -80 c0 -9 -6 -34 -12 -56 -12 -38 -12 -38 -30 -18 -23
25 -46 87 -47 124 l0 27 45 -30 c25 -17 45 -38 44 -47z m320 -38 c-24 -50 -32
-48 -48 10 -12 45 -10 51 33 77 l31 19 3 -30 c2 -17 -6 -51 -19 -76z m-209
-45 l0 -79 -27 6 c-16 4 -40 13 -55 20 l-26 14 15 57 c8 32 16 61 18 64 2 3
20 3 39 1 l36 -4 0 -79z m133 34 c14 -48 15 -60 3 -71 -18 -19 -89 -42 -99
-33 -4 5 -7 39 -5 77 3 73 5 75 74 83 6 0 19 -25 27 -56z"/>
<path d="M3413 8868 c-45 -80 -93 -131 -135 -147 -25 -10 -31 -6 -84 49 -68
72 -122 105 -204 126 -148 38 -281 -28 -346 -171 -24 -51 -28 -72 -27 -145 0
-60 7 -102 22 -144 24 -68 20 -78 -44 -107 -30 -14 -65 -19 -138 -19 -54 0
-97 -4 -95 -8 10 -26 114 -202 119 -202 3 0 23 32 44 71 41 74 99 135 137 144
18 5 36 -7 91 -60 90 -88 157 -119 257 -120 41 0 91 4 111 8 l35 9 173 -301
c95 -166 176 -301 180 -301 3 0 12 4 20 9 11 7 -24 74 -162 312 l-175 303 43
49 c66 73 88 141 82 252 -3 50 -13 111 -22 138 -14 39 -15 50 -4 63 28 34 74
47 177 52 56 3 102 7 102 9 0 6 -111 203 -114 203 -1 0 -21 -33 -43 -72z
m-361 -40 c61 -28 115 -73 140 -115 l17 -29 -252 -146 c-285 -164 -264 -161
-293 -48 -18 72 -9 153 27 226 26 54 97 119 147 133 58 16 153 7 214 -21z
m203 -230 c27 -65 31 -165 10 -232 -17 -54 -79 -140 -96 -134 -5 2 -44 65 -88
141 l-79 137 91 53 c121 71 131 76 138 77 4 0 15 -19 24 -42z m-213 -259 c51
-89 74 -137 67 -144 -6 -5 -49 -10 -97 -10 -92 0 -133 15 -209 73 -30 22 -80
89 -72 96 25 20 217 125 224 122 6 -1 45 -63 87 -137z"/>
<path d="M7035 8804 c-112 -17 -199 -57 -271 -126 -105 -99 -154 -210 -154
-347 l0 -78 -65 -18 c-36 -9 -68 -15 -70 -13 -3 3 -8 73 -12 157 -6 148 -7
152 -27 147 -12 -3 -59 -15 -106 -27 -47 -12 -86 -23 -88 -24 -2 -2 33 -70 77
-151 l81 -149 -42 -7 c-24 -3 -107 -7 -185 -7 -129 -1 -143 -3 -143 -19 0 -17
46 -191 52 -197 2 -2 73 35 158 81 85 45 161 83 168 84 9 0 12 -38 12 -160 0
-121 3 -160 13 -160 17 0 198 47 203 53 3 2 -27 62 -66 133 -38 71 -70 134
-70 140 0 7 21 17 48 23 26 7 54 14 63 17 12 3 33 -18 72 -74 65 -92 123 -147
205 -190 161 -86 378 -55 523 76 100 90 148 195 158 346 l6 99 170 44 c172 44
260 79 260 104 0 19 -58 23 -125 9 -30 -6 -112 -27 -181 -46 -69 -19 -132 -34
-140 -34 -8 0 -23 15 -34 33 -67 115 -180 219 -280 256 -55 21 -157 33 -210
25z m203 -82 c118 -45 223 -159 259 -281 23 -79 14 -218 -19 -291 -35 -79
-116 -163 -192 -200 -173 -85 -362 -55 -497 79 -163 163 -167 412 -10 583 56
62 142 111 221 128 65 13 177 5 238 -18z"/>
<path d="M6986 8604 c-72 -23 -156 -110 -180 -188 -47 -150 37 -321 181 -370
195 -67 396 72 397 273 0 82 -15 128 -63 189 -76 95 -213 135 -335 96z m194
-56 c78 -29 139 -114 147 -206 14 -156 -129 -284 -281 -252 -183 38 -258 250
-138 390 67 79 172 105 272 68z"/>
<path d="M1485 7615 c-41 -105 1 -187 134 -269 112 -68 124 -85 115 -164 -3
-34 -9 -62 -13 -62 -3 0 -23 27 -44 60 -50 77 -105 126 -159 141 -37 10 -53 8
-115 -10 -40 -11 -84 -21 -98 -21 -38 0 -90 25 -140 66 -25 20 -51 34 -59 31
-19 -8 -29 -101 -16 -167 23 -118 86 -194 222 -265 103 -54 126 -71 148 -115
26 -52 26 -53 -15 -28 -37 21 -39 21 -191 2 -47 -7 -84 9 -140 58 -29 26 -37
29 -45 17 -15 -24 -10 -103 11 -164 28 -82 82 -148 202 -249 58 -48 112 -100
121 -116 17 -28 17 -32 -2 -87 -16 -47 -17 -59 -6 -61 7 -2 130 20 273 47 143
28 263 51 268 51 5 0 17 -14 27 -32 18 -31 18 -31 37 -12 25 26 391 662 401
697 8 28 8 29 -33 25 l-40 -3 -89 259 c-49 143 -91 262 -94 264 -11 11 -37
-11 -63 -53 l-29 -47 -52 66 c-89 111 -160 140 -279 111 -84 -21 -124 -12
-182 42 l-38 34 -17 -46z m182 -81 c165 21 174 20 227 -16 60 -40 116 -118
116 -161 0 -17 -17 -59 -38 -96 -21 -36 -139 -239 -261 -451 -123 -212 -230
-395 -238 -408 l-14 -23 -39 31 c-68 54 -192 173 -241 233 -43 51 -88 151 -74
165 2 3 28 -6 57 -18 51 -22 57 -22 146 -10 92 12 93 12 118 -11 13 -12 36
-42 50 -66 13 -24 29 -43 34 -43 20 0 32 44 26 93 -14 102 -65 164 -190 230
-151 81 -216 164 -216 280 0 53 10 71 26 46 13 -22 109 -59 152 -59 24 0 66 7
93 16 59 20 126 15 162 -12 24 -18 91 -112 129 -183 9 -17 24 -31 32 -31 20 0
46 85 53 170 6 79 -8 102 -94 148 -132 70 -180 125 -167 191 l6 30 49 -26 c40
-20 57 -24 96 -19z m535 -320 c52 -153 73 -226 65 -229 -35 -11 -449 -87 -453
-82 -5 5 297 537 306 537 3 0 40 -102 82 -226z m138 -290 c0 -17 -144 -254
-151 -247 -8 8 -71 205 -66 209 4 3 182 42 200 43 9 1 17 -2 17 -5z m-229
-164 c27 -83 34 -117 26 -121 -22 -12 -219 -50 -232 -45 -11 4 -85 205 -85
232 0 11 189 53 230 51 22 -2 28 -13 61 -117z m-276 -178 c42 -123 75 -225 73
-227 -5 -5 -462 -94 -466 -90 -1 1 68 125 154 274 86 149 158 270 159 269 1
-2 37 -103 80 -226z m297 -24 c-11 -18 -45 -78 -77 -133 -31 -55 -58 -102 -60
-103 -4 -4 -61 171 -67 203 -3 17 9 22 92 41 52 12 103 23 113 23 18 1 18 0
-1 -31z"/>
<path d="M8000 7483 c0 -9 18 -40 41 -70 l40 -54 -34 -42 c-49 -60 -93 -142
-112 -211 -14 -46 -16 -81 -12 -155 4 -53 9 -108 13 -123 l6 -28 -48 27 c-68
38 -155 38 -214 -1 -49 -32 -59 -52 -37 -74 15 -14 21 -13 69 11 64 32 105 34
158 7 129 -66 131 -262 4 -315 -26 -10 -34 -20 -34 -39 0 -30 15 -36 55 -23
82 27 135 104 135 196 l0 53 64 -51 c35 -28 94 -65 132 -83 58 -27 81 -32 168
-36 56 -2 120 1 144 6 l43 10 32 -66 c41 -85 59 -87 69 -8 7 57 41 129 72 156
18 14 21 36 6 45 -6 4 -44 -12 -85 -34 -164 -91 -334 -94 -480 -11 -49 28
-155 129 -155 147 0 8 780 463 793 463 4 0 19 -25 35 -56 l28 -56 13 44 c18
60 33 86 92 164 29 37 48 64 43 61 -26 -16 -177 -27 -231 -18 -31 6 -58 9 -60
8 -1 -2 11 -25 28 -51 18 -26 28 -51 23 -55 -13 -11 -758 -439 -778 -447 -25
-10 -57 73 -63 166 -13 188 74 347 247 449 50 30 70 48 68 59 -2 10 -11 16
-23 14 -67 -11 -143 -4 -189 16 -58 26 -66 27 -66 5z"/>
<path d="M4875 6040 c-296 -43 -475 -93 -715 -197 -286 -124 -558 -290 -820
-501 -86 -69 -360 -332 -360 -346 0 -17 202 -214 330 -321 251 -211 450 -345
695 -465 274 -135 368 -168 625 -220 431 -87 870 -33 1309 162 242 107 378
191 626 387 184 146 455 417 455 456 0 32 -281 325 -445 465 -133 113 -228
183 -355 260 -374 227 -682 319 -1090 326 -107 1 -222 -1 -255 -6z m321 -196
c159 -28 314 -108 443 -230 192 -180 280 -397 268 -659 -6 -136 -23 -202 -86
-330 -103 -209 -284 -367 -503 -439 -91 -29 -238 -56 -311 -56 -113 0 -288 45
-407 105 -69 35 -199 135 -249 191 -90 102 -161 231 -193 349 -28 102 -35 290
-14 388 79 382 410 664 821 700 55 5 134 -2 231 -19z"/>
<path d="M4910 5473 c-14 -2 -61 -22 -105 -43 -308 -147 -378 -545 -139 -782
268 -266 728 -157 846 200 22 68 24 207 3 275 -50 167 -186 299 -350 342 -55
14 -195 18 -255 8z"/>
<path d="M610 5867 c8 -7 47 -39 85 -70 156 -126 205 -181 205 -232 0 -69 -13
-64 -133 54 -115 113 -147 130 -155 87 -3 -13 31 -53 110 -133 92 -92 110
-115 98 -124 -28 -19 -89 -3 -136 36 -56 46 -154 159 -184 214 -33 58 -44 51
-19 -11 46 -118 133 -228 229 -290 64 -41 109 -51 165 -37 l47 12 74 -79 c40
-43 74 -82 74 -85 0 -12 -86 -18 -129 -8 -67 15 -145 57 -206 111 -30 27 -55
46 -55 41 0 -18 93 -125 142 -164 94 -74 148 -93 265 -94 l103 0 95 -95 96
-95 -31 -9 c-43 -13 -149 7 -223 42 -34 16 -92 54 -129 86 -38 31 -68 54 -68
51 0 -18 67 -100 126 -154 124 -113 275 -165 379 -131 l37 12 192 -190 c196
-194 254 -242 293 -242 35 0 30 43 -12 100 -20 27 -117 127 -216 224 -173 167
-181 176 -173 203 5 15 9 62 9 103 -1 69 -4 82 -44 158 -28 54 -66 106 -105
145 -60 60 -142 124 -150 116 -2 -2 23 -38 57 -79 82 -101 127 -200 127 -277
-1 -32 -6 -67 -13 -79 -11 -20 -17 -15 -105 84 -82 93 -93 108 -86 131 4 14 8
53 8 87 1 50 -5 72 -36 135 -42 84 -109 165 -175 210 -24 17 -46 29 -48 27 -2
-1 22 -37 52 -78 72 -97 103 -163 103 -220 0 -58 -9 -90 -25 -90 -22 0 -156
153 -149 170 17 46 16 109 -4 153 -46 105 -215 241 -345 278 -26 7 -29 7 -17
-4z"/>
<path d="M8523 5506 c-83 -20 -163 -67 -228 -131 -71 -72 -109 -142 -132 -248
-54 -248 105 -504 351 -567 129 -33 228 -24 342 32 117 56 203 154 249 281
l22 61 16 -29 c20 -39 62 -78 112 -103 22 -11 48 -34 58 -52 23 -39 43 -34 40
11 -1 28 -13 44 -68 94 -53 48 -69 70 -81 110 -21 72 -10 131 33 174 18 18 36
32 38 29 2 -2 -2 -22 -10 -43 -18 -50 -18 -109 -1 -158 14 -39 42 -77 58 -77
13 0 9 44 -7 83 -26 63 -15 127 35 190 47 59 105 70 192 37 66 -25 80 -25 102
-1 31 34 31 84 1 140 -39 71 -63 95 -81 80 -23 -19 -17 -85 12 -129 15 -22 25
-42 23 -45 -3 -2 -47 3 -99 11 -136 23 -230 15 -283 -22 -23 -17 -51 -46 -62
-67 -11 -20 -23 -37 -26 -37 -3 0 -16 26 -29 58 -54 134 -123 218 -227 275
-100 54 -235 71 -350 43z m215 -41 c169 -40 293 -161 337 -330 20 -78 19 -136
-3 -216 -48 -173 -185 -297 -361 -329 -237 -43 -469 130 -511 381 -22 132 29
277 134 378 70 66 121 95 204 115 75 19 124 19 200 1z"/>
<path d="M8387 5336 c-21 -8 -46 -21 -56 -30 -21 -19 -57 -94 -49 -102 4 -3
23 -1 45 5 54 15 133 14 183 -4 23 -8 59 -15 79 -15 39 0 109 28 128 52 11 12
3 16 -58 26 -48 7 -88 21 -120 41 -60 37 -103 45 -152 27z m131 -64 c24 -13
42 -25 40 -28 -8 -7 -178 28 -178 36 0 13 53 27 75 21 11 -4 40 -17 63 -29z"/>
<path d="M8415 5138 c-41 -15 -103 -58 -144 -102 -19 -20 -33 -36 -30 -36 3 0
30 9 62 20 94 33 144 24 256 -48 101 -66 181 -64 254 6 23 22 55 97 45 107 -2
2 -31 -10 -65 -27 -55 -27 -65 -29 -96 -19 -20 7 -55 30 -80 51 -25 22 -57 44
-71 50 -34 13 -92 12 -131 -2z m152 -65 c75 -60 98 -73 141 -79 36 -5 41 -9
27 -16 -37 -22 -85 -11 -161 36 -41 26 -96 52 -121 59 l-45 12 28 12 c40 18
90 9 131 -24z"/>
<path d="M8349 4923 c-27 -16 -59 -62 -59 -82 0 -8 21 -9 68 -5 58 5 79 1 156
-25 101 -35 134 -38 176 -16 26 14 60 50 60 66 0 3 -20 2 -45 -4 -56 -13 -99
-1 -175 48 -44 28 -64 35 -105 35 -28 0 -61 -8 -76 -17z m135 -43 c8 -10 2
-11 -29 -5 -60 10 -80 27 -26 21 24 -2 49 -10 55 -16z"/>
<path d="M1489 3696 c-146 -31 -260 -96 -363 -207 -35 -38 -71 -69 -79 -69 -9
0 -51 14 -94 30 -78 30 -123 38 -123 21 0 -9 55 -59 144 -133 l28 -24 -22 -89
c-19 -77 -22 -107 -17 -210 8 -187 56 -295 186 -425 83 -83 193 -145 305 -174
32 -8 63 -19 69 -25 5 -5 14 -34 18 -63 32 -203 58 -210 85 -23 11 79 20 95
52 95 51 0 146 30 232 72 151 75 267 213 326 388 29 84 27 290 -4 387 -12 39
-19 77 -16 85 3 7 33 37 66 66 48 43 62 51 74 41 7 -6 2 9 -12 35 -28 50 -35
57 -27 27 4 -16 -7 -23 -77 -44 -45 -14 -88 -23 -96 -20 -7 2 -29 25 -50 49
-68 84 -194 163 -315 198 -81 23 -211 28 -290 12z m246 -51 c105 -22 206 -76
289 -155 39 -38 68 -71 64 -75 -15 -15 -253 -56 -391 -67 -116 -9 -178 -9
-280 0 -127 12 -268 36 -295 51 -16 9 106 131 169 170 130 80 292 108 444 76z
m386 -285 c10 -6 19 -15 19 -20 0 -6 -34 -47 -76 -92 -193 -210 -337 -445
-424 -692 -17 -50 -35 -96 -41 -102 -19 -23 -36 -4 -49 54 -54 245 -214 532
-410 737 -97 101 -89 114 52 85 151 -32 341 -43 501 -30 127 9 382 52 395 65
7 7 11 7 33 -5z m73 -146 c30 -94 27 -247 -7 -347 -56 -162 -167 -290 -312
-358 -78 -37 -215 -75 -215 -59 0 4 11 43 26 86 55 171 184 404 312 562 81
101 156 181 167 178 5 -1 18 -29 29 -62z m-965 -149 c86 -113 152 -228 201
-348 43 -105 85 -246 76 -255 -11 -10 -108 18 -173 50 -77 38 -178 128 -229
205 -49 74 -92 201 -100 294 -6 70 0 122 27 223 l11 39 60 -59 c33 -32 90 -99
127 -149z"/>
<path d="M1433 3219 c-18 -5 -33 -12 -33 -15 0 -11 67 -32 122 -39 68 -9 128
8 128 35 0 10 -10 20 -22 24 -34 9 -158 6 -195 -5z"/>
<path d="M1708 2988 c-35 -47 -64 -107 -72 -151 -7 -36 -6 -38 13 -28 32 17
89 91 107 137 28 74 -3 101 -48 42z"/>
<path d="M8191 3780 c-254 -67 -451 -250 -538 -502 -37 -108 -44 -291 -14
-408 42 -169 147 -332 274 -427 78 -58 214 -123 264 -126 36 -2 38 0 41 30 3
28 0 32 -35 44 -21 6 -57 20 -81 31 l-44 18 20 32 c10 18 63 110 117 203 55
94 104 173 109 177 6 4 35 8 64 8 29 0 67 7 84 16 18 9 40 13 55 9 39 -9 123
-86 123 -112 0 -12 -10 -61 -22 -110 -16 -68 -21 -121 -22 -238 -1 -134 1
-153 19 -182 l20 -32 0 142 c1 113 6 171 28 289 26 135 27 149 13 176 -15 29
-15 30 9 36 21 5 24 10 15 26 -14 26 -14 26 24 26 28 0 47 12 112 73 139 130
235 195 348 237 l61 23 -53 0 c-29 1 -68 -6 -87 -13 -60 -25 -187 -116 -256
-182 -95 -90 -131 -101 -219 -63 -44 19 -64 41 -59 65 5 31 -5 67 -32 107
l-31 47 111 193 c61 106 117 201 124 210 11 16 18 12 74 -34 70 -57 106 -63
111 -17 7 56 -203 188 -362 228 -105 27 -263 26 -365 0z m351 -76 c31 -8 77
-23 102 -34 l45 -19 -105 -183 c-58 -101 -113 -195 -122 -210 -20 -35 -71 -39
-100 -8 -19 21 -137 448 -127 458 24 24 209 21 307 -4z m-358 -61 c21 -66 106
-392 106 -407 0 -22 -57 -69 -76 -62 -20 8 -372 210 -397 228 -16 12 -14 17
28 70 25 32 71 78 103 103 54 44 184 114 209 115 6 0 18 -21 27 -47z m-189
-413 c88 -51 168 -99 178 -108 9 -8 17 -29 17 -47 0 -18 -8 -38 -17 -47 -29
-24 -455 -132 -463 -117 -13 20 -22 137 -15 192 8 67 41 191 61 228 l15 30 32
-20 c18 -10 104 -61 192 -111z m442 -59 c45 -21 83 -78 83 -126 0 -82 -84
-153 -167 -140 -55 8 -109 58 -119 111 -11 60 21 124 76 152 54 27 73 27 127
3z m-232 -219 c6 -4 18 -19 28 -34 l17 -27 -121 -211 -122 -210 -36 26 c-20
15 -51 41 -70 58 -82 76 -190 268 -161 286 7 4 92 29 189 55 97 25 187 50 201
55 32 11 62 12 75 2z"/>
<path d="M2754 2432 c-74 -47 -108 -62 -142 -62 l-27 -1 24 -19 c30 -26 47
-25 133 5 39 14 82 25 94 25 30 0 80 -43 86 -74 4 -20 -5 -30 -56 -64 -110
-72 -196 -173 -263 -307 -89 -175 -102 -348 -42 -532 25 -75 19 -100 -27 -119
-49 -21 -84 -3 -103 53 -14 39 -14 44 12 92 29 58 21 65 -34 28 -47 -32 -62
-66 -53 -125 5 -34 16 -56 39 -79 33 -33 102 -58 135 -49 11 4 28 8 39 11 15
5 19 -2 24 -46 12 -103 89 -169 196 -169 61 0 97 16 138 63 l30 34 61 -15 c51
-14 75 -14 152 -5 102 13 125 26 134 77 5 23 32 57 102 126 137 134 175 194
219 346 14 48 28 90 30 92 3 3 32 -10 66 -28 54 -28 68 -32 120 -28 73 5 113
31 117 76 l3 31 -58 -20 c-32 -11 -69 -17 -82 -14 -13 3 -54 31 -92 61 -56 45
-69 61 -75 92 -37 220 -117 341 -271 414 -103 49 -196 55 -349 23 -29 -6 -34
-3 -62 37 -44 64 -97 108 -131 108 -15 0 -54 -17 -87 -38z m531 -306 c132 -60
216 -195 218 -353 1 -39 -2 -75 -5 -79 -4 -3 -19 3 -34 15 -56 44 -93 21 -128
-81 l-22 -63 -62 -19 c-34 -11 -62 -22 -62 -26 0 -12 50 -30 83 -30 44 0 73
22 101 79 34 66 51 79 76 56 27 -24 25 -68 -5 -133 -28 -60 -102 -160 -142
-191 -23 -19 -28 -20 -43 -6 -28 25 -76 17 -177 -30 -53 -25 -99 -45 -103 -45
-4 0 -11 12 -15 28 -26 104 -168 164 -268 113 l-38 -19 -10 26 c-25 66 -39
143 -39 219 0 224 156 457 358 536 72 29 78 25 86 -44 3 -34 2 -68 -2 -76 -5
-8 -35 -25 -67 -38 -59 -25 -115 -69 -115 -92 0 -7 3 -13 8 -13 22 1 152 39
180 54 61 31 89 105 73 189 -4 25 -6 49 -2 53 11 11 105 -7 156 -30z m-449
-825 c69 -31 94 -114 54 -179 -43 -70 -136 -78 -197 -17 -29 29 -33 40 -33 83
0 60 32 106 83 121 45 13 47 13 93 -8z"/>
<path d="M7242 2074 c-96 -48 -155 -143 -155 -249 0 -64 16 -106 53 -140 31
-28 154 -34 215 -10 56 21 105 75 105 116 0 28 -3 31 -24 25 -13 -3 -32 -9
-41 -12 -10 -4 6 15 34 41 63 59 72 87 40 121 -49 52 -159 16 -159 -53 0 -9
13 0 34 21 34 36 62 44 95 26 32 -17 32 -38 0 -75 -21 -23 -40 -35 -57 -35
-46 0 -112 -40 -141 -85 -22 -35 -30 -41 -48 -34 -33 12 -46 45 -41 109 5 70
39 127 100 167 36 24 52 28 112 28 104 -1 182 -49 232 -145 28 -52 26 -171 -4
-227 -54 -102 -137 -154 -257 -161 -101 -5 -172 19 -245 85 -56 50 -84 101
-146 258 -45 117 -86 174 -136 193 -32 13 -40 12 -82 -7 -77 -33 -88 -84 -64
-287 10 -93 10 -104 -8 -140 -21 -42 -56 -61 -95 -51 -13 4 -62 41 -109 82
-110 99 -136 115 -187 115 -82 0 -146 -104 -124 -201 9 -41 89 -199 101 -199
25 0 19 70 -14 159 -9 24 -16 68 -16 97 0 45 4 56 24 69 36 24 62 12 161 -76
105 -94 130 -109 185 -109 52 0 92 21 122 62 25 35 28 87 17 301 -4 84 -3 90
20 108 52 42 101 -7 150 -148 47 -136 85 -204 146 -262 231 -218 583 -119 645
182 14 71 6 127 -28 190 -80 149 -273 220 -410 151z m119 -334 c15 -9 17 -15
9 -30 -12 -22 -54 -16 -46 7 3 8 6 19 6 24 0 12 7 11 31 -1z"/>
<path d="M5423 1962 c-10 -6 -10 -17 -3 -42 6 -19 10 -40 10 -47 0 -7 -44 -34
-97 -61 -131 -65 -178 -96 -234 -153 -69 -71 -99 -137 -155 -347 -3 -10 -51
-12 -216 -10 l-213 3 -5 67 -5 67 -132 -77 c-73 -42 -133 -80 -133 -83 0 -4
60 -41 133 -83 l132 -75 3 64 3 65 217 0 218 0 11 -67 c7 -40 29 -102 54 -152
59 -120 145 -203 280 -270 55 -28 107 -51 115 -51 21 0 26 -21 16 -68 -8 -33
-7 -42 6 -47 8 -3 18 -2 22 2 4 4 22 63 40 131 28 104 31 125 19 133 -23 14
-26 12 -44 -52 -17 -61 -17 -61 -48 -55 -18 3 -66 23 -107 43 -152 75 -297
261 -308 398 l-4 55 356 0 356 0 0 -55 c0 -48 2 -55 20 -55 19 0 20 7 20 128
0 128 -6 152 -37 152 -9 0 -13 -17 -13 -60 l0 -60 -350 0 -350 0 0 33 c0 126
111 303 248 393 49 33 166 84 192 84 5 0 17 -27 26 -60 16 -57 38 -78 50 -47
6 17 -59 260 -71 264 -6 1 -16 -1 -22 -5z m-953 -682 c0 -44 -3 -80 -6 -80
-11 0 -134 72 -134 79 0 7 120 81 133 81 4 0 7 -36 7 -80z"/>
</g>
</svg>
